<?xml version="1.0" encoding="iso-8859-1"?>
<!-- Uploaded to: SVG Repo, www.svgrepo.com, Generator: SVG Repo Mixer Tools -->
<svg version="1.1" id="Layer_1" xmlns="http://www.w3.org/2000/svg" xmlns:xlink="http://www.w3.org/1999/xlink" 
	 viewBox="0 0 512 512" xml:space="preserve">
<path style="fill:#2D2D2D;" d="M0,337.046V72.334c0.081-4.658,3.838-8.415,8.496-8.496h401.312c4.658,0.081,8.415,3.838,8.496,8.496
	v264.712H0z"/>
<g>
	<path style="fill:#BCBCBC;" d="M418.304,337.046v33.992c-0.081,4.658-3.838,8.415-8.496,8.496H8.496
		c-4.658-0.081-8.415-3.838-8.496-8.496v-33.992H418.304z"/>
	<rect x="119.606" y="439.666" style="fill:#BCBCBC;" width="179.086" height="8.496"/>
</g>
<polygon style="fill:#2D2D2D;" points="268.632,439.662 149.672,439.662 158.168,379.526 260.136,379.526 "/>
<rect x="16.992" y="80.831" style="fill:#FFFFFF;" width="384.323" height="239.221"/>
<polygon points="260.136,379.526 158.168,379.526 153.432,413.086 261.656,390.334 "/>
<path style="fill:#2D2D2D;" d="M459,317.846h-12.8v-28.64c-0.031-3.513-2.887-6.344-6.4-6.344h-60.16
	c-3.513,0-6.369,2.832-6.4,6.344v28.64h-12.8v-28.64c0.049-10.558,8.642-19.079,19.2-19.04h60.184
	c10.558-0.04,19.151,8.482,19.2,19.04L459,317.846z"/>
<path style="fill:#E21B1B;" d="M336.184,310.414l-28.728,137.744H512l-28.728-137.744H336.184z"/>
<path style="fill:#FFFFFF;" d="M378.832,359.038c-6.124-0.04-11.056-5.036-11.016-11.16c0.04-6.124,5.036-11.056,11.16-11.016
	c6.096,0.039,11.016,4.992,11.016,11.088C389.97,354.093,384.975,359.056,378.832,359.038z M440.624,359.038
	c-6.124-0.04-11.056-5.036-11.016-11.16c0.04-6.124,5.036-11.056,11.16-11.016c6.096,0.039,11.016,4.992,11.016,11.088
	C451.762,354.093,446.767,359.056,440.624,359.038z"/>
<path style="fill:#E2E2E2;" d="M287.904,170.03v103.48l-143.392,0.112V170.03"/>
<g>
	<path style="fill:#E21B1B;" d="M171.864,176.686c-0.232,12.245-10.348,21.984-22.594,21.75c-11.918-0.226-21.525-9.833-21.75-21.75
		v-26.808h177.376v26.808c-0.232,12.245-10.348,21.983-22.594,21.75c-11.918-0.227-21.525-9.833-21.75-21.75"/>
	<path style="fill:#E21B1B;" d="M171.864,176.686c0.232,12.245,10.347,21.984,22.593,21.751
		c11.918-0.226,21.525-9.833,21.751-21.751"/>
	<path style="fill:#E21B1B;" d="M216.208,176.686c0.232,12.245,10.347,21.984,22.593,21.751
		c11.918-0.226,21.525-9.833,21.751-21.751"/>
</g>
<rect x="127.597" y="268.067" width="177.266" height="11.088"/>
<rect x="193.856" y="216.803" width="44.696" height="51.272"/>
<polyline style="fill:#E21B1B;" points="216.064,121.718 155.848,121.718 127.512,149.878 304.872,149.878 276.536,121.718 
	208.536,121.718 "/>
</svg>